<svg xmlns="http://www.w3.org/2000/svg" width="1300" height="700"><rect width="100%" height="100%" fill="white"/><text x="650" y="42" text-anchor="middle" font-family="Arial" font-size="25" font-weight="bold">ЛР4: ошибки при перестановке кодов категорий</text><line x1="70" y1="580" x2="1260" y2="580" stroke="#333"/><rect x="85" y="324.7" width="46" height="255.3" fill="#2ca02c"/><text x="108.0" y="314.7" text-anchor="middle" font-family="Arial" font-size="12">751</text><text x="108.0" y="605" text-anchor="middle" font-family="Arial" font-size="10">1</text><rect x="145" y="322.7" width="46" height="257.3" fill="#4c78a8"/><text x="168.0" y="312.7" text-anchor="middle" font-family="Arial" font-size="12">757</text><text x="168.0" y="605" text-anchor="middle" font-family="Arial" font-size="10">2</text><rect x="205" y="286.3" width="46" height="293.7" fill="#4c78a8"/><text x="228.0" y="276.3" text-anchor="middle" font-family="Arial" font-size="12">864</text><text x="228.0" y="605" text-anchor="middle" font-family="Arial" font-size="10">3</text><rect x="265" y="283.2" width="46" height="296.8" fill="#4c78a8"/><text x="288.0" y="273.2" text-anchor="middle" font-family="Arial" font-size="12">873</text><text x="288.0" y="605" text-anchor="middle" font-family="Arial" font-size="10">4</text><rect x="325" y="270.7" width="46" height="309.3" fill="#4c78a8"/><text x="348.0" y="260.7" text-anchor="middle" font-family="Arial" font-size="12">910</text><text x="348.0" y="605" text-anchor="middle" font-family="Arial" font-size="10">5</text><rect x="385" y="265.6" width="46" height="314.4" fill="#4c78a8"/><text x="408.0" y="255.6" text-anchor="middle" font-family="Arial" font-size="12">925</text><text x="408.0" y="605" text-anchor="middle" font-family="Arial" font-size="10">6</text><rect x="445" y="265.2" width="46" height="314.8" fill="#4c78a8"/><text x="468.0" y="255.2" text-anchor="middle" font-family="Arial" font-size="12">926</text><text x="468.0" y="605" text-anchor="middle" font-family="Arial" font-size="10">7</text><rect x="505" y="263.9" width="46" height="316.1" fill="#4c78a8"/><text x="528.0" y="253.9" text-anchor="middle" font-family="Arial" font-size="12">930</text><text x="528.0" y="605" text-anchor="middle" font-family="Arial" font-size="10">8</text><rect x="565" y="223.1" width="46" height="356.9" fill="#4c78a8"/><text x="588.0" y="213.1" text-anchor="middle" font-family="Arial" font-size="12">1050</text><text x="588.0" y="605" text-anchor="middle" font-family="Arial" font-size="10">9</text><rect x="625" y="220.3" width="46" height="359.7" fill="#4c78a8"/><text x="648.0" y="210.3" text-anchor="middle" font-family="Arial" font-size="12">1058</text><text x="648.0" y="605" text-anchor="middle" font-family="Arial" font-size="10">10</text><rect x="685" y="184.0" width="46" height="396.0" fill="#4c78a8"/><text x="708.0" y="174.0" text-anchor="middle" font-family="Arial" font-size="12">1165</text><text x="708.0" y="605" text-anchor="middle" font-family="Arial" font-size="10">11</text><rect x="745" y="181.6" width="46" height="398.4" fill="#4c78a8"/><text x="768.0" y="171.6" text-anchor="middle" font-family="Arial" font-size="12">1172</text><text x="768.0" y="605" text-anchor="middle" font-family="Arial" font-size="10">12</text><rect x="805" y="135.0" width="46" height="445.0" fill="#4c78a8"/><text x="828.0" y="125.0" text-anchor="middle" font-family="Arial" font-size="12">1309</text><text x="828.0" y="605" text-anchor="middle" font-family="Arial" font-size="10">13</text><rect x="865" y="134.3" width="46" height="445.7" fill="#4c78a8"/><text x="888.0" y="124.3" text-anchor="middle" font-family="Arial" font-size="12">1311</text><text x="888.0" y="605" text-anchor="middle" font-family="Arial" font-size="10">14</text><rect x="925" y="104.8" width="46" height="475.2" fill="#4c78a8"/><text x="948.0" y="94.8" text-anchor="middle" font-family="Arial" font-size="12">1398</text><text x="948.0" y="605" text-anchor="middle" font-family="Arial" font-size="10">15</text><rect x="985" y="103.7" width="46" height="476.3" fill="#4c78a8"/><text x="1008.0" y="93.7" text-anchor="middle" font-family="Arial" font-size="12">1401</text><text x="1008.0" y="605" text-anchor="middle" font-family="Arial" font-size="10">16</text><rect x="1045" y="102.7" width="46" height="477.3" fill="#4c78a8"/><text x="1068.0" y="92.7" text-anchor="middle" font-family="Arial" font-size="12">1404</text><text x="1068.0" y="605" text-anchor="middle" font-family="Arial" font-size="10">17</text><rect x="1105" y="101.7" width="46" height="478.3" fill="#4c78a8"/><text x="1128.0" y="91.7" text-anchor="middle" font-family="Arial" font-size="12">1407</text><text x="1128.0" y="605" text-anchor="middle" font-family="Arial" font-size="10">18</text><rect x="1165" y="101.4" width="46" height="478.6" fill="#4c78a8"/><text x="1188.0" y="91.4" text-anchor="middle" font-family="Arial" font-size="12">1408</text><text x="1188.0" y="605" text-anchor="middle" font-family="Arial" font-size="10">19</text><rect x="1225" y="100.0" width="46" height="480.0" fill="#4c78a8"/><text x="1248.0" y="90.0" text-anchor="middle" font-family="Arial" font-size="12">1412</text><text x="1248.0" y="605" text-anchor="middle" font-family="Arial" font-size="10">20</text><text x="650" y="650" text-anchor="middle" font-family="Arial" font-size="15">Ранг кодировки (слева — лучший результат)</text></svg>